# AST/ASF file generated using VICON BodyLanguage
# -----------------------------------------------
:version 1.10
:name VICON
:units
  mass 1.0
  length 0.45
  angle deg
:documentation
   .ast/.asf automatically generated from VICON data using
   VICON BodyBuilder and BodyLanguage model FoxedUp or BRILLIANT.MOD
:root
   order TX TY TZ RX RY RZ
   axis XYZ
   position 0 0 0  
   orientation 0 0 0 
:bonedata
  begin
     id 1 
     name lhipjoint
     direction 0.570549 -0.739093 0.358072 
     length 2.41801 
     axis 0 0 0  XYZ
  end
  begin
     id 2 
     name lfemur
     direction 0.34202 -0.939693 0  
     length 7.44434  
     axis 0 0 20  XYZ
    dof rx ry rz
    limits (-160.0 20.0)
           (-70.0 70.0)
           (-60.0 70.0)
  end
  begin
     id 3 
     name ltibia
     direction 0.34202 -0.939693 0   
     length 7.60047   
     axis 0 0 20   XYZ
    dof rx
    limits (-10.0 170.0)
  end
  begin
     id 4 
     name lfoot
     direction 0.0909041 -0.249757 0.964032   
     length 2.03437   
     axis -90 7.62852e-016 20   XYZ
    dof rx rz
    limits (-45.0 90.0)
           (-70.0 20.0)
  end
  begin
     id 5 
     name ltoes
     direction 1.53547e-011 -4.2174e-011 1   
     length 1.02054   
     axis -90 7.62852e-016 20   XYZ
    dof rx
    limits (-90.0 20.0)
  end
  begin
     id 6 
     name rhipjoint
     direction -0.558096 -0.746754 0.361784   
     length 2.3932  
     axis 0 0 0  XYZ 
  end
  begin
     id 7 
     name rfemur
     direction -0.34202 -0.939693 0   
     length 7.3886   
     axis 0 0 -20   XYZ
    dof rx ry rz
    limits (-160.0 20.0)
           (-70.0 70.0)
           (-70.0 60.0)
  end
  begin
     id 8 
     name rtibia
     direction -0.34202 -0.939693 0   
     length 7.4839   
     axis 0 0 -20   XYZ
    dof rx
    limits (-10.0 170.0)
 end
 begin
     id 9 
     name rfoot
     direction -0.114619 -0.314914 0.942174   
     length 2.25127  
     axis -90 -7.62852e-016 -20   XYZ
    dof rx rz
    limits (-45.0 90.0)
           (-20.0 70.0)
  end
  begin
     id 10 
     name rtoes
     direction -1.53518e-011 -4.21881e-011 1   
     length 1.11821   
     axis -90 -7.62852e-016 -20   XYZ
    dof rx
    limits (-90.0 20.0)
  end
  begin
     id 11 
     name lowerback
     direction -0.00902269 0.996426 -0.0839821   
     length 2.25052   
     axis 0 0 0   XYZ
    dof rx ry rz
    limits (-20.0 45.0)
           (-30.0 30.0)
           (-30.0 30.0)
  end
  begin
     id 12 
     name upperback
     direction 0.0370973 0.999169 -0.0168941   
     length 2.24876   
     axis 0 0 0   XYZ
    dof rx ry rz
    limits (-20.0 45.0)
           (-30.0 30.0)
           (-30.0 30.0)
  end
  begin
     id 13 
     name thorax
     direction 0.0402726 0.998931 0.0227027   
     length 2.26408   
     axis 0 0 0   XYZ
    dof rx ry rz
    limits (-20.0 45.0)
           (-30.0 30.0)
           (-30.0 30.0)
  end
  begin
     id 14 
     name lowerneck
     direction -0.0733697 0.98508 0.155675   
     length 1.58204   
     axis 0 0 0   XYZ
    dof rx ry rz
    limits (-20.0 45.0)
           (-30.0 30.0)
           (-30.0 30.0)
  end
  begin
     id 15 
     name upperneck
     direction 0.0426554 0.993501 -0.105526   
     length 1.61222   
     axis 0 0 0   XYZ
    dof rx ry rz
    limits (-20.0 45.0)
           (-30.0 30.0)
           (-30.0 30.0)
  end
  begin
     id 16
     name head
     direction 0.020792 0.998384 -0.0528868  
     length 1.61527  
     axis 0 0 0   XYZ
    dof rx ry rz
    limits (-20.0 45.0)
           (-30.0 30.0)
           (-30.0 30.0)
  end
  begin
     id 17 
     name lclavicle
     direction 0.967109 0.155462 -0.201325  
     length 3.59357  
     axis 0 0 0   XYZ
    dof ry rz
    limits (-20.0 10.0)
           (0.0 20.0)
  end
  begin
     id 18 
     name lhumerus
     direction 1 -4.48968e-011 2.38195e-027   
     length 5.38154   
     axis 180 -30 -90   XYZ
    dof rx ry rz
    limits (-60.0 90.0)
           (-90.0 90.0)
           (-90.0 90.0)
  end
  begin
     id 19
     name lradius
     direction 1 -4.48961e-011 4.85371e-027   
     length 3.33312   
     axis 180 -30 -90   XYZ
    dof rx
    limits (-10.0 170.0)
  end
  begin
     id 20
     name lwrist
     direction 1 -4.48961e-011 4.76515e-027   
     length 1.66656   
     axis -3.27502e-015 90 90   XYZ
    dof ry
    limits (-180.0 0.0)
 end
  begin
     id 21 
     name lhand
     direction 1 -4.48951e-011 9.53074e-027   
     length 0.710789   
     axis -6.08098e-015 90 90   XYZ
    dof rx rz
    limits (-90.0 90.0)
           (-45.0 45.0)
  end
  begin
     id 22 
     name lfingers
     direction 1 -4.48953e-011 1.90613e-026   
     length 0.573057   
     axis -1.21619e-014 90 90   XYZ
    dof rx
    limits (0.0 90.0)
  end
  begin
     id 23
     name lthumb
     direction 0.707107 -6.34973e-011 0.707107   
     length 0.822798   
     axis -90 45 -9.86923e-015   XYZ
    dof rx rz
    limits (-45.0 45.0)
           (-45.0 45.0)
  end
  begin
     id 24 
     name rclavicle
     direction -0.9585 0.265289 -0.104398   
     length 3.42039  
     axis 0 0 0   XYZ 
    dof ry rz
    limits (-10.0 20.0)
           (-20.0 0.0)
  end
  begin
     id 25 
     name rhumerus
     direction -1 -4.48977e-011 2.21478e-027  
     length 5.16954   
     axis 180 30 90   XYZ
    dof rx ry rz
    limits (-90.0 60.0)
           (-90.0 90.0)
           (-90.0 90.0)
  end
  begin
     id 26 
     name rradius
     direction -1 -4.48967e-011 5.63677e-027   
     length 3.38287   
     axis 180 30 90   XYZ
    dof rx
    limits (-10.0 170.0)
  end
  begin
     id 27 
     name rwrist
     direction -1 -4.48967e-011 4.76501e-027   
     length 1.69144   
     axis -3.27502e-015 -90 -90   XYZ
    dof ry
    limits (-180.0 0.0)
  end
  begin
     id 28
     name rhand
     direction -1 -4.48902e-011 9.53292e-027   
     length 0.817967   
     axis -6.08098e-015 -90 -90   XYZ
    dof rx rz
    limits (-90.0 90.0)
           (-45.0 45.0)
  end
  begin
     id 29
     name rfingers
     direction -1 -4.49012e-011 1.90561e-026   
     length 0.659466   
     axis -1.21619e-014 -90 -90   XYZ
    dof rx
    limits (0.0 90.0)
  end
  begin
     id 30
     name rthumb
     direction -0.707107 -6.34944e-011 0.707107   
     length 0.946865   
     axis -90 -45 9.86923e-015   XYZ
    dof rx rz
    limits (-45.0 45.0)
           (-45.0 45.0)
  end
:hierarchy
  begin
    root lhipjoint rhipjoint lowerback
    lhipjoint lfemur
    lfemur ltibia
    ltibia lfoot
    lfoot ltoes
    rhipjoint rfemur
    rfemur rtibia
    rtibia rfoot
    rfoot rtoes
    lowerback upperback
    upperback thorax
    thorax lowerneck lclavicle rclavicle
    lowerneck upperneck
    upperneck head
    lclavicle lhumerus
    lhumerus lradius
    lradius lwrist
    lwrist lhand lthumb
    lhand lfingers
    rclavicle rhumerus
    rhumerus rradius
    rradius rwrist
    rwrist rhand rthumb
    rhand rfingers
  end

#!OML:ASF F:\twosubjects\two\wednesday\Session 1\Justin1.ASF
:FULLY-SPECIFIED
:DEGREES
211
root 2.44 17.8399 15.673 -0.0529713 5.50147 4.7143
lowerback 6.13638 0.497272 -5.76896
upperback 1.72856 0.329547 1.00098
thorax -1.69079 0.175758 4.25581
lowerneck -10.6121 -4.44996 -10.782
upperneck 11.3479 -5.66311 10.1569
head 5.76539 -2.53538 4.51731
rclavicle -2.23633e-015 2.38542e-015
rhumerus 13.6003 -13.322 -74.4726
rradius 47.5886
rwrist -34.2526
rhand -17.6388 18.4495
rfingers 7.12502
rthumb 8.61887 -11.3546
lclavicle -2.23633e-015 2.38542e-015
lhumerus -52.7111 24.2658 59.5908
lradius 16.6932
lwrist -22.3552
lhand 3.46961 42.296
lfingers 7.12502
lthumb 28.9092 70.0753
rfemur -49.4294 -9.58179 15.4658
rtibia 23.8086
rfoot 7.12022 -11.94
rtoes -3.97037
lfemur 21.0514 -3.41358 -28.7024
ltibia -5.08889e-014
lfoot -5.04036 -11.3093
ltoes -6.24928
212
root 2.45529 17.8344 15.8213 0.0244302 6.04557 4.59232
lowerback 6.33438 0.332099 -5.15648
upperback 1.61192 0.133616 0.972014
thorax -1.89916 0.0850786 3.89451
lowerneck -10.8098 -4.66044 -10.5563
upperneck 11.7474 -5.92447 9.66931
head 5.93103 -2.67955 4.29578
rclavicle -7.85199e-015 -5.56597e-015
rhumerus 12.7857 -13.7374 -74.667
rradius 47.6128
rwrist -33.5138
rhand -17.5051 18.0983
rfingers 7.12502
rthumb 8.74796 -11.7004
lclavicle -7.85199e-015 -5.56597e-015
lhumerus -52.2181 24.3482 60.179
lradius 16.5812
lwrist -22.5577
lhand 4.0992 42.6041
lfingers 7.12502
lthumb 29.5104 70.2789
rfemur -48.9716 -11.3731 16.7025
rtibia 23.9369
rfoot 9.48034 -9.77063
rtoes -10.3665
lfemur 21.4529 -3.79824 -28.5466
ltibia 3.18055e-014
lfoot -4.26535 -11.6973
ltoes -3.4548
213
root 2.3971 17.8474 15.9965 0.508323 5.84578 3.72978
lowerback 5.78739 0.366417 -4.92523
upperback 1.28813 0.223239 1.31597
thorax -1.93905 0.137133 4.11449
lowerneck -9.15146 -4.16134 -10.9206
upperneck 10.6919 -5.39049 10.4808
head 5.29475 -2.42946 4.68463
rclavicle -4.22417e-015 -9.54166e-015
rhumerus 11.7586 -13.8285 -74.9496
rradius 47.5059
rwrist -33.316
rhand -17.5212 17.9572
rfingers 7.12502
rthumb 8.73237 -11.8421
lclavicle -4.22417e-015 -9.54166e-015
lhumerus -51.7323 23.9491 61.1308
lradius 16.6526
lwrist -22.1871
lhand 4.81697 43.1908
lfingers 7.12502
lthumb 30.1954 70.7425
rfemur -48.3942 -8.80019 16.5785
rtibia 23.8402
rfoot 10.0511 -12.0045
rtoes -11.1011
lfemur 21.2822 -3.63236 -27.1445
ltibia 2.22639e-014
lfoot -3.63793 -12.1447
ltoes -0.115894
214
root 2.37361 17.8431 16.1698 0.838722 6.39219 4.28111
lowerback 5.72612 0.146092 -5.59179
upperback 1.03603 -0.115355 1.17773
thorax -2.12762 -0.017285 4.37353
lowerneck -13.82 -5.2296 -7.54402
upperneck 14.9085 -6.52431 5.60511
head 7.28235 -3.0648 2.37087
rclavicle -1.49089e-016 -2.22639e-014
rhumerus 10.5859 -13.5216 -75.0459
rradius 47.6029
rwrist -33.2037
rhand -17.7071 18.0371
rfingers 7.12502
rthumb 8.55302 -11.7697
lclavicle -1.49089e-016 -2.22639e-014
lhumerus -51.1969 23.493 62.1953
lradius 16.8663
lwrist -21.6159
lhand 4.87023 43.3568
lfingers 7.12502
lthumb 30.2462 70.8992
rfemur -47.6603 -8.52694 15.5955
rtibia 23.6629
rfoot 11.2099 -13.4201
rtoes -7.57162
lfemur 21.6025 -4.07379 -27.5563
ltibia 2.8625e-014
lfoot -3.36636 -12.4769
ltoes -1.57403
215
root 2.34901 17.8355 16.3483 1.07724 6.71426 4.37003
lowerback 5.33503 0.00511325 -5.82149
upperback 1.09314 -0.291107 1.2138
thorax -1.82741 -0.114362 4.55074
lowerneck -15.8989 -5.57771 -6.14475
upperneck 16.2783 -6.8331 3.51217
head 7.98993 -3.28846 1.36834
rclavicle 1.3418e-014 1.90833e-014
rhumerus 9.8351 -13.2533 -75.0065
rradius 47.5404
rwrist -32.9558
rhand -17.7471 18.3575
rfingers 7.12502
rthumb 8.51436 -11.4509
lclavicle 1.3418e-014 1.90833e-014
lhumerus -50.3539 23.1458 63.5326
lradius 17.2204
lwrist -20.8282
lhand 4.58809 43.1599
lfingers 7.12502
lthumb 29.977 70.7514
rfemur -46.8439 -8.22206 15.4236
rtibia 23.6314
rfoot 12.7409 -14.3438
rtoes -5.64718
lfemur 22.0717 -4.30089 -27.4508
ltibia 3.18055e-014
lfoot -3.35942 -12.834
ltoes -5.61078
216
root 2.32265 17.8265 16.5296 1.33393 7.09701 3.61266
lowerback 4.79852 -0.181568 -5.21862
upperback 1.11516 -0.471761 1.50873
thorax -1.48533 -0.217832 4.52271
lowerneck -15.4586 -5.42431 -6.29518
upperneck 15.8663 -6.6496 3.76077
head 7.78109 -3.19325 1.51027
rclavicle -3.65267e-014 4.77083e-015
rhumerus 9.2163 -13.0833 -75.0749
rradius 47.1435
rwrist -32.7495
rhand -17.4743 18.3516
rfingers 7.12502
rthumb 8.77769 -11.4458
lclavicle -3.65267e-014 4.77083e-015
lhumerus -49.6828 24.0114 63.8208
lradius 16.8695
lwrist -21.5326
lhand 4.26733 42.8246
lfingers 7.12502
lthumb 29.6709 70.471
rfemur -46.1222 -7.88551 16.2917
rtibia 23.8336
rfoot 14.2654 -15.0022
rtoes -6.01616
lfemur 22.3101 -4.60829 -26.3958
ltibia -3.18055e-014
lfoot -3.27278 -13.2044
ltoes -7.09868
217
root 2.33556 17.8006 16.6931 1.81341 8.22171 4.34125
lowerback 4.63898 -0.597711 -5.47782
upperback 0.939131 -1.03779 1.28217
thorax -1.51124 -0.495135 4.4645
lowerneck -13.457 -4.94771 -7.35498
upperneck 14.5079 -6.16211 5.46532
head 7.05321 -2.89993 2.34327
rclavicle 1.51076e-014 1.59028e-015
rhumerus 8.48994 -12.9173 -75.1555
rradius 46.5515
rwrist -32.5423
rhand -17.1524 18.0414
rfingers 7.12502
rthumb 9.08827 -11.7428
lclavicle 1.51076e-014 1.59028e-015
lhumerus -49.155 25.2359 63.7156
lradius 16.2929
lwrist -22.784
lhand 4.19931 42.589
lfingers 7.12502
lthumb 29.606 70.2469
rfemur -45.6199 -10.1505 16.4177
rtibia 24.0458
rfoot 16.2202 -13.9816
rtoes -7.24349
lfemur 22.4377 -5.57798 -27.2165
ltibia 2.22639e-014
lfoot -3.51724 -13.1644
ltoes -12.9732
218
root 2.29378 17.7712 16.8961 1.90189 7.85587 3.90619
lowerback 4.16357 -0.45172 -5.38221
upperback 0.933034 -0.809956 1.46589
thorax -1.27677 -0.388616 4.5821
lowerneck -11.0149 -4.41335 -9.02461
upperneck 12.6059 -5.62595 7.97642
head 6.11021 -2.57832 3.52475
rclavicle 7.90169e-015 1.03368e-014
rhumerus 7.66573 -13.0412 -75.254
rradius 45.8951
rwrist -32.0603
rhand -17.0158 18.0912
rfingers 7.12502
rthumb 9.22005 -11.6872
lclavicle 7.90169e-015 1.03368e-014
lhumerus -48.3316 24.9732 64.8677
lradius 16.4768
lwrist -22.3947
lhand 4.43005 42.5658
lfingers 7.12502
lthumb 29.8262 70.1844
rfemur -44.5738 -8.59623 16.7695
rtibia 24.2886
rfoot 16.7054 -15.0401
rtoes -8.0982
lfemur 22.0964 -5.10264 -26.5261
ltibia 2.02412
lfoot -5.53449 -12.0955
ltoes -25.3197
219
root 2.26552 17.7501 17.0902 2.06691 7.91438 3.87745
lowerback 3.98185 -0.490847 -5.48701
upperback 0.770575 -0.859952 1.46382
thorax -1.33532 -0.407709 4.64049
lowerneck -9.19658 -4.00555 -10.3748
upperneck 11.0478 -5.21992 10.0554
head 5.36698 -2.34812 4.47302
rclavicle -4.22417e-015 -2.38542e-015
rhumerus 6.30644 -13.3186 -75.6496
rradius 45.6879
rwrist -31.2478
rhand -16.7931 18.1795
rfingers 7.12502
rthumb 9.43497 -11.5893
lclavicle -4.22417e-015 -2.38542e-015
lhumerus -47.8 24.7192 65.7128
lradius 16.649
lwrist -22.146
lhand 4.31095 42.2346
lfingers 7.12502
lthumb 29.7125 69.8736
rfemur -43.6854 -8.25316 17.0916
rtibia 24.8266
rfoot 17.531 -15.2866
rtoes -7.21596
lfemur 21.601 -5.05526 -26.2343
ltibia 3.38787
lfoot -3.35024 -10.8652
ltoes -19.5451
